<svg xmlns="http://www.w3.org/2000/svg" version="1.1" xmlns:xlink="http://www.w3.org/1999/xlink" xmlns:svgjs="http://svgjs.dev/svgjs" width="1440" height="560" preserveAspectRatio="none" viewBox="0 0 1440 560"><g mask="url(&quot;#SvgjsMask1000&quot;)" fill="none"><rect width="1440" height="560" x="0" y="0" fill="#0e2a47"></rect><rect width="60" height="60" clip-path="url(&quot;#SvgjsClipPath1001&quot;)" x="891.48" y="279.67" fill="url(&quot;#SvgjsPattern1002&quot;)" transform="rotate(346.1, 921.48, 309.67)"></rect><path d="M319.22 269.82a5.6 5.6 0 1 0 11.03-1.9 5.6 5.6 0 1 0-11.03 1.9zM334.98 267.11a5.6 5.6 0 1 0 11.04-1.91 5.6 5.6 0 1 0-11.04 1.91zM350.75 264.39a5.6 5.6 0 1 0 11.04-1.9 5.6 5.6 0 1 0-11.04 1.9zM366.52 261.67a5.6 5.6 0 1 0 11.03-1.9 5.6 5.6 0 1 0-11.03 1.9z" stroke="#037b0b" stroke-width="1.24" stroke-dasharray="3, 2"></path><rect width="192" height="192" clip-path="url(&quot;#SvgjsClipPath1003&quot;)" x="818.21" y="228.85" fill="url(&quot;#SvgjsPattern1004&quot;)" transform="rotate(295.01, 914.21, 324.85)"></rect><rect width="360" height="360" clip-path="url(&quot;#SvgjsClipPath1005&quot;)" x="890.29" y="347.86" fill="url(&quot;#SvgjsPattern1006&quot;)" transform="rotate(126.68, 1070.29, 527.86)"></rect><path d="M1374.99 82.04a5.6 5.6 0 1 0 8.51-7.27 5.6 5.6 0 1 0-8.51 7.27zM1387.15 71.65a5.6 5.6 0 1 0 8.52-7.27 5.6 5.6 0 1 0-8.52 7.27zM1399.32 61.26a5.6 5.6 0 1 0 8.52-7.27 5.6 5.6 0 1 0-8.52 7.27zM1411.49 50.87a5.6 5.6 0 1 0 8.52-7.27 5.6 5.6 0 1 0-8.52 7.27zM1361.04 114.99a5.6 5.6 0 1 0 8.52-7.27 5.6 5.6 0 1 0-8.52 7.27zM1373.21 104.6a5.6 5.6 0 1 0 8.52-7.27 5.6 5.6 0 1 0-8.52 7.27zM1385.38 94.21a5.6 5.6 0 1 0 8.51-7.27 5.6 5.6 0 1 0-8.51 7.27zM1397.54 83.82a5.6 5.6 0 1 0 8.52-7.27 5.6 5.6 0 1 0-8.52 7.27z" stroke="#e73635" stroke-width="2.14" stroke-dasharray="2, 2"></path><rect width="180" height="180" clip-path="url(&quot;#SvgjsClipPath1007&quot;)" x="-63.98" y="118.15" fill="url(&quot;#SvgjsPattern1008&quot;)" transform="rotate(221.74, 26.02, 208.15)"></rect><rect width="138.4" height="138.4" clip-path="url(&quot;#SvgjsClipPath1009&quot;)" x="749.19" y="9.63" fill="url(&quot;#SvgjsPattern1010&quot;)" transform="rotate(45.34, 818.39, 78.83)"></rect><path d="M326.55 228.39999999999998 L386.58 244.69L387.6759681333662 205.43403186663377z" fill="#e73635"></path><circle r="72.58749212396927" cx="870.64" cy="453.07" stroke="#d3b714" stroke-width="2.37" stroke-dasharray="2, 2"></circle><rect width="127.2" height="127.2" clip-path="url(&quot;#SvgjsClipPath1011&quot;)" x="176.93" y="-24.33" fill="url(&quot;#SvgjsPattern1012&quot;)" transform="rotate(69.02, 240.53, 39.27)"></rect><path d="M1107.67 523.07a5.6 5.6 0 1 0 10.41 4.14 5.6 5.6 0 1 0-10.41-4.14zM1122.54 528.98a5.6 5.6 0 1 0 10.4 4.15 5.6 5.6 0 1 0-10.4-4.15zM1137.4 534.9a5.6 5.6 0 1 0 10.41 4.14 5.6 5.6 0 1 0-10.41-4.14zM1152.27 540.82a5.6 5.6 0 1 0 10.4 4.14 5.6 5.6 0 1 0-10.4-4.14z" fill="#037b0b"></path><path d="M597.13 403.3L607.13 395.3 617.13 403.31 627.13 395.31 637.13 403.31 647.13 395.32 657.13 403.32M597.12 411.3L607.13 403.3 617.12 411.31 627.13 403.31 637.12 411.31 647.13 403.32 657.12 411.32" stroke="#037b0b" stroke-width="2.57" stroke-dasharray="4, 4"></path></g><defs><mask id="SvgjsMask1000"><rect width="1440" height="560" fill="#ffffff"></rect></mask><pattern x="0" y="0" width="60" height="6" patternUnits="userSpaceOnUse" id="SvgjsPattern1002"><rect width="60" height="3" x="0" y="0" fill="#037b0b"></rect><rect width="60" height="3" x="0" y="3" fill="rgba(0, 0, 0, 0)"></rect></pattern><clipPath id="SvgjsClipPath1001"><circle r="15" cx="921.48" cy="309.67"></circle></clipPath><pattern x="0" y="0" width="6" height="6" patternUnits="userSpaceOnUse" id="SvgjsPattern1004"><path d="M0 6L3 0L6 6" stroke="#e73635" fill="none"></path></pattern><clipPath id="SvgjsClipPath1003"><circle r="48" cx="914.21" cy="324.85"></circle></clipPath><pattern x="0" y="0" width="360" height="6" patternUnits="userSpaceOnUse" id="SvgjsPattern1006"><rect width="360" height="3" x="0" y="0" fill="#d3b714"></rect><rect width="360" height="3" x="0" y="3" fill="rgba(0, 0, 0, 0)"></rect></pattern><clipPath id="SvgjsClipPath1005"><circle r="90" cx="1070.29" cy="527.86"></circle></clipPath><pattern x="0" y="0" width="180" height="6" patternUnits="userSpaceOnUse" id="SvgjsPattern1008"><rect width="180" height="3" x="0" y="0" fill="#037b0b"></rect><rect width="180" height="3" x="0" y="3" fill="rgba(0, 0, 0, 0)"></rect></pattern><clipPath id="SvgjsClipPath1007"><circle r="45" cx="26.02" cy="208.15"></circle></clipPath><pattern x="0" y="0" width="6.92" height="6.92" patternUnits="userSpaceOnUse" id="SvgjsPattern1010"><path d="M0 6.92L3.46 0L6.92 6.92" stroke="#d3b714" fill="none"></path></pattern><clipPath id="SvgjsClipPath1009"><circle r="34.6" cx="818.39" cy="78.83"></circle></clipPath><pattern x="0" y="0" width="12.72" height="12.72" patternUnits="userSpaceOnUse" id="SvgjsPattern1012"><path d="M0 12.72L6.36 0L12.72 12.72" stroke="#037b0b" fill="none"></path></pattern><clipPath id="SvgjsClipPath1011"><circle r="31.8" cx="240.53" cy="39.27"></circle></clipPath></defs></svg>