<svg xmlns="http://www.w3.org/2000/svg" width="200" height="200" viewBox="0 0 1024 1024" fill="none">
  <!-- 黄色圆形（主体） -->
  <path 
    d="M435.2 640m-332.8 0a332.8 332.8 0 1 0 665.6 0 332.8 332.8 0 1 0-665.6 0Z" 
    fill="#FFEA80" 
    stroke="#27272a" 
    stroke-width="20" />

  <!-- 内部黑色路径（惊叹号/图形） - 改成亮灰 -->
  <path 
    d="M217.1904 876.3904h133.12c28.3648 0 52.4288 24.064 41.3696 50.176-7.9872 18.7904-22.1696 35.6864-47.4624 35.6864H109.0048a51.2 51.2 0 0 1-46.7968-71.7824l336.384-765.5936a37.5808 37.5808 0 0 1 70.2976 3.8912l239.6672 766.6176a51.5072 51.5072 0 1 1-98.6112 29.5936L448.256 362.2912a25.6 25.6 0 0 0-48.128-3.072L193.6384 840.704a25.6 25.6 0 0 0 23.552 35.6864zM865.4848 340.2752l-53.76 564.5824a52.48 52.48 0 1 0 104.5504 8.704l40.448-565.7088a45.7728 45.7728 0 0 0-91.2384-7.5776z m47.4112-235.8272a80.0256 80.0256 0 1 0 0 160h80.0256V184.4224c0-44.1856-35.84-80.0256-80.0256-80.0256z" 
    fill="#E4E4E7" 
    stroke="#27272a" 
    stroke-width="15" />
</svg>